# AST/ASF file generated using VICON BodyLanguage
# -----------------------------------------------
:version 1.10
:name VICON
:units
  mass 1.0
  length 0.45
  angle deg
:documentation
   .ast/.asf automatically generated from VICON data using
   VICON BodyBuilder and BodyLanguage model FoxedUp or BRILLIANT.MOD
:root
   order TX TY TZ RX RY RZ
   axis XYZ
   position 0 0 0  
   orientation 0 0 0 
:bonedata
  begin
     id 1 
     name lhipjoint
     direction 0.650112 -0.723553 0.232005 
     length 2.45805 
     axis 0 0 0  XYZ
  end
  begin
     id 2 
     name lfemur
     direction 0.34202 -0.939693 0  
     length 7.00073  
     axis 0 0 20  XYZ
    dof rx ry rz
    limits (-160.0 20.0)
           (-70.0 70.0)
           (-60.0 70.0)
  end
  begin
     id 3 
     name ltibia
     direction 0.34202 -0.939693 0   
     length 7.8748   
     axis 0 0 20   XYZ
    dof rx
    limits (-10.0 170.0)
  end
  begin
     id 4 
     name lfoot
     direction 0.0542825 -0.14914 0.987325   
     length 1.75978   
     axis -90 7.62852e-016 20   XYZ
    dof rx rz
    limits (-45.0 90.0)
           (-70.0 20.0)
  end
  begin
     id 5 
     name ltoes
     direction 1.53509e-011 -4.21906e-011 1   
     length 0.893912   
     axis -90 7.62852e-016 20   XYZ
    dof rx
    limits (-90.0 20.0)
  end
  begin
     id 6 
     name rhipjoint
     direction -0.637897 -0.733345 0.235145   
     length 2.42522  
     axis 0 0 0  XYZ 
  end
  begin
     id 7 
     name rfemur
     direction -0.34202 -0.939693 0   
     length 7.02549   
     axis 0 0 -20   XYZ
    dof rx ry rz
    limits (-160.0 20.0)
           (-70.0 70.0)
           (-70.0 60.0)
  end
  begin
     id 8 
     name rtibia
     direction -0.34202 -0.939693 0   
     length 7.71512   
     axis 0 0 -20   XYZ
    dof rx
    limits (-10.0 170.0)
 end
 begin
     id 9 
     name rfoot
     direction -0.0822618 -0.226012 0.970645   
     length 1.90014  
     axis -90 -7.62852e-016 -20   XYZ
    dof rx rz
    limits (-45.0 90.0)
           (-20.0 70.0)
  end
  begin
     id 10 
     name rtoes
     direction -1.53542e-011 -4.21872e-011 1   
     length 0.957341   
     axis -90 -7.62852e-016 -20   XYZ
    dof rx
    limits (-90.0 20.0)
  end
  begin
     id 11 
     name lowerback
     direction -0.0022947 0.999774 -0.0211557   
     length 1.89909   
     axis 0 0 0   XYZ
    dof rx ry rz
    limits (-20.0 45.0)
           (-30.0 30.0)
           (-30.0 30.0)
  end
  begin
     id 12 
     name upperback
     direction 0.0107737 0.998635 0.0511027   
     length 1.8853   
     axis 0 0 0   XYZ
    dof rx ry rz
    limits (-20.0 45.0)
           (-30.0 30.0)
           (-30.0 30.0)
  end
  begin
     id 13 
     name thorax
     direction 0.011824 0.998136 0.0598754   
     length 1.88911   
     axis 0 0 0   XYZ
    dof rx ry rz
    limits (-20.0 45.0)
           (-30.0 30.0)
           (-30.0 30.0)
  end
  begin
     id 14 
     name lowerneck
     direction -0.0685355 0.990319 0.120714   
     length 1.91222   
     axis 0 0 0   XYZ
    dof rx ry rz
    limits (-20.0 45.0)
           (-30.0 30.0)
           (-30.0 30.0)
  end
  begin
     id 15 
     name upperneck
     direction 0.0886204 0.955665 -0.280805   
     length 1.92526   
     axis 0 0 0   XYZ
    dof rx ry rz
    limits (-20.0 45.0)
           (-30.0 30.0)
           (-30.0 30.0)
  end
  begin
     id 16
     name head
     direction 0.0233423 0.993502 -0.111393  
     length 1.96056  
     axis 0 0 0   XYZ
    dof rx ry rz
    limits (-20.0 45.0)
           (-30.0 30.0)
           (-30.0 30.0)
  end
  begin
     id 17 
     name lclavicle
     direction 0.941873 0.32922 0.0670041  
     length 3.31705  
     axis 0 0 0   XYZ
    dof ry rz
    limits (-20.0 10.0)
           (0.0 20.0)
  end
  begin
     id 18 
     name lhumerus
     direction 1 -4.4898e-011 3.38707e-028   
     length 5.29277   
     axis 180 -30 -90   XYZ
    dof rx ry rz
    limits (-60.0 90.0)
           (-90.0 90.0)
           (-90.0 90.0)
  end
  begin
     id 19
     name lradius
     direction 1 -4.48952e-011 1.63213e-028   
     length 2.85226   
     axis 180 -30 -90   XYZ
    dof rx
    limits (-10.0 170.0)
  end
  begin
     id 20
     name lwrist
     direction 1 -4.49001e-011 1.27856e-027   
     length 1.42613   
     axis -1.61767e-015 90 90   XYZ
    dof ry
    limits (-180.0 0.0)
 end
  begin
     id 21 
     name lhand
     direction 1 -4.48976e-011 2.55931e-027   
     length 0.602097   
     axis -1.63363e-015 90 90   XYZ
    dof rx rz
    limits (-90.0 90.0)
           (-45.0 45.0)
  end
  begin
     id 22 
     name lfingers
     direction 1 -4.48986e-011 5.11684e-027   
     length 0.485426   
     axis -3.26723e-015 90 90   XYZ
    dof rx
    limits (0.0 90.0)
  end
  begin
     id 23
     name lthumb
     direction 0.707107 -6.34915e-011 0.707107   
     length 0.696978   
     axis -90 45 -2.25915e-014   XYZ
    dof rx rz
    limits (-45.0 45.0)
           (-45.0 45.0)
  end
  begin
     id 24 
     name rclavicle
     direction -0.939974 0.327078 0.0973096   
     length 3.10337  
     axis 0 0 0   XYZ 
    dof ry rz
    limits (-10.0 20.0)
           (-20.0 0.0)
  end
  begin
     id 25 
     name rhumerus
     direction -1 -4.48975e-011 1.83745e-027  
     length 5.13304   
     axis 180 30 90   XYZ
    dof rx ry rz
    limits (-90.0 60.0)
           (-90.0 90.0)
           (-90.0 90.0)
  end
  begin
     id 26 
     name rradius
     direction -1 -4.48977e-011 7.1775e-029   
     length 2.74305   
     axis 180 30 90   XYZ
    dof rx
    limits (-10.0 170.0)
  end
  begin
     id 27 
     name rwrist
     direction -1 -4.48977e-011 1.27963e-027   
     length 1.37152   
     axis -1.61767e-015 -90 -90   XYZ
    dof ry
    limits (-180.0 0.0)
  end
  begin
     id 28
     name rhand
     direction -1 -4.4888e-011 2.56782e-027   
     length 0.767976   
     axis -1.63363e-015 -90 -90   XYZ
    dof rx rz
    limits (-90.0 90.0)
           (-45.0 45.0)
  end
  begin
     id 29
     name rfingers
     direction -1 -4.48947e-011 5.12384e-027   
     length 0.619162   
     axis -3.26723e-015 -90 -90   XYZ
    dof rx
    limits (0.0 90.0)
  end
  begin
     id 30
     name rthumb
     direction -0.707107 -6.34857e-011 0.707107   
     length 0.888997   
     axis -90 -45 2.25915e-014   XYZ
    dof rx rz
    limits (-45.0 45.0)
           (-45.0 45.0)
  end
:hierarchy
  begin
    root lhipjoint rhipjoint lowerback
    lhipjoint lfemur
    lfemur ltibia
    ltibia lfoot
    lfoot ltoes
    rhipjoint rfemur
    rfemur rtibia
    rtibia rfoot
    rfoot rtoes
    lowerback upperback
    upperback thorax
    thorax lowerneck lclavicle rclavicle
    lowerneck upperneck
    upperneck head
    lclavicle lhumerus
    lhumerus lradius
    lradius lwrist
    lwrist lhand lthumb
    lhand lfingers
    rclavicle rhumerus
    rhumerus rradius
    rradius rwrist
    rwrist rhand rthumb
    rhand rfingers
  end

#!OML:ASF F:\VICON\USERDATA\INSTALL\rory3\rory3.ASF
:FULLY-SPECIFIED
:DEGREES
860
root 0.149486 16.9874 -0.429029 5.63666 -30.9927 -6.03077
lowerback -0.845699 -0.877525 -4.9815
upperback -6.98413 -1.56828 -2.85896
thorax -6.77102 -0.614736 -0.122752
lowerneck -8.74647 -10.3049 -17.8584
upperneck 23.631 -15.7049 15.4441
head 11.8812 -7.46328 6.43033
rclavicle -7.4743e-014 -3.65764e-014
rhumerus -15.9058 7.45738 -94.976
rradius 122.295
rwrist 31.9846
rhand 43.6467 7.40562
rfingers 7.12502
rthumb 65.3403 0.805669
lclavicle -7.4743e-014 -3.65764e-014
lhumerus -5.76389 -14.6857 99.9484
lradius 124.802
lwrist -12.8672
lhand 36.3602 45.1201
lfingers 7.12502
lthumb 59.3156 59.5993
rfemur -16.028 17.9828 22.8757
rtibia 26.9993
rfoot -18.5301 7.71027
rtoes -15.7303
lfemur -9.85481 3.61448 -15.1097
ltibia 34.9124
lfoot -28.4211 19.9504
ltoes -8.21153
861
root 0.137986 16.996 -0.442854 5.67159 -29.6084 -6.1109
lowerback -0.371479 -0.804341 -5.62759
upperback -7.03749 -1.5045 -2.49439
thorax -7.08654 -0.521357 0.620656
lowerneck -8.86433 -10.378 -17.9312
upperneck 23.6602 -15.7262 15.3071
head 11.915 -7.47836 6.37986
rclavicle 2.74323e-014 -3.18055e-014
rhumerus -17.1362 7.09637 -95.1358
rradius 121.98
rwrist 32.4508
rhand 43.2558 7.53038
rfingers 7.12502
rthumb 65.0328 0.408291
lclavicle 2.74323e-014 -3.18055e-014
lhumerus -4.49213 -15.0136 99.7655
lradius 124.917
lwrist -12.931
lhand 36.0393 44.8344
lfingers 7.12502
lthumb 59.0388 59.5857
rfemur -15.7609 17.4493 23.0922
rtibia 26.7133
rfoot -17.9609 7.04811
rtoes -14.9004
lfemur -10.2413 2.54458 -14.8465
ltibia 35.0535
lfoot -28.0811 19.9258
ltoes -9.24324
862
root 0.129412 17.0031 -0.455371 5.86541 -28.114 -6.31529
lowerback 0.161384 -0.766115 -6.21869
upperback -7.18379 -1.49194 -1.97858
thorax -7.53593 -0.44314 1.49664
lowerneck -8.95763 -10.4169 -18.1198
upperneck 23.6701 -15.667 15.1472
head 11.9286 -7.46992 6.35504
rclavicle 8.94531e-014 3.18055e-014
rhumerus -18.3906 6.81397 -95.1183
rradius 121.844
rwrist 32.7113
rhand 43.375 7.43004
rfingers 7.12502
rthumb 65.1268 0.465756
lclavicle 8.94531e-014 3.18055e-014
lhumerus -3.26178 -15.2058 99.6596
lradius 124.84
lwrist -13.5858
lhand 35.6004 44.2654
lfingers 7.12502
lthumb 58.659 59.3804
rfemur -15.6981 16.7928 23.4051
rtibia 26.5705
rfoot -17.6427 6.34462
rtoes -14.2738
lfemur -10.8224 1.44143 -14.4537
ltibia 35.276
lfoot -27.7847 19.8628
ltoes -10.1462
863
root 0.123644 17.0029 -0.470451 6.04954 -26.5616 -6.39392
lowerback -0.130325 -0.804665 -6.11449
upperback -6.82021 -1.48891 -2.02591
thorax -6.97289 -0.467895 1.38393
lowerneck -9.25018 -10.4389 -17.9883
upperneck 23.1626 -15.7252 15.6561
head 11.843 -7.41693 6.49499
rclavicle 3.29983e-014 -1.11319e-014
rhumerus -18.6983 6.21553 -95.765
rradius 121.651
rwrist 32.9536
rhand 43.7656 7.68374
rfingers 7.12502
rthumb 65.4334 1.24536
lclavicle 3.29983e-014 -1.11319e-014
lhumerus -1.23358 -15.6509 98.4373
lradius 124.729
lwrist -13.9708
lhand 35.2718 44.056
lfingers 7.12502
lthumb 58.3737 59.4373
rfemur -15.7943 16.025 23.5919
rtibia 26.5418
rfoot -17.651 5.54021
rtoes -14.4995
lfemur -11.5546 0.37387 -14.1672
ltibia 35.5734
lfoot -27.3582 19.9143
ltoes -11.7935
864
root 0.120089 16.9987 -0.485817 6.23678 -25.0299 -6.39688
lowerback -0.246012 -0.8462 -6.33265
upperback -6.57866 -1.51042 -1.82668
thorax -6.63525 -0.469579 1.71215
lowerneck -9.72461 -10.4656 -17.9637
upperneck 22.9263 -15.6735 15.8104
head 11.8515 -7.34437 6.534
rclavicle -2.42517e-014 2.70347e-014
rhumerus -19.0338 5.80213 -95.919
rradius 121.511
rwrist 32.8947
rhand 44.1546 8.05978
rfingers 7.12502
rthumb 65.7364 2.1587
lclavicle -2.42517e-014 2.70347e-014
lhumerus 0.427129 -15.7706 97.6197
lradius 124.794
lwrist -14.0384
lhand 35.2075 44.1103
lfingers 7.12502
lthumb 58.3178 59.5431
rfemur -15.9934 15.2534 23.6849
rtibia 26.6047
rfoot -17.7081 4.75324
rtoes -15.267
lfemur -12.3682 -0.651331 -13.9442
ltibia 35.93
lfoot -27.0774 19.7096
ltoes -12.5241
865
root 0.117664 16.995 -0.499733 6.35934 -23.4996 -6.29793
lowerback -0.111341 -0.824346 -6.76683
upperback -6.52593 -1.48624 -1.57334
thorax -6.64765 -0.423008 2.21918
lowerneck -10.1006 -10.5094 -17.7419
upperneck 22.9667 -15.6362 15.5672
head 11.8899 -7.30329 6.39408
rclavicle 1.15295e-014 1.27222e-014
rhumerus -19.6683 5.28121 -95.8224
rradius 121.558
rwrist 32.7556
rhand 44.6637 8.30253
rfingers 7.12502
rthumb 66.1295 3.12585
lclavicle 1.15295e-014 1.27222e-014
lhumerus 1.46137 -15.9344 97.195
lradius 124.733
lwrist -14.378
lhand 35.0114 43.6903
lfingers 7.12502
lthumb 58.1471 59.279
rfemur -16.2226 14.4578 23.6723
rtibia 26.78
rfoot -17.7572 4.02694
rtoes -15.6842
lfemur -13.1801 -1.64399 -13.8242
ltibia 36.3256
lfoot -26.9237 19.2689
ltoes -12.6807
866
root 0.115046 16.9899 -0.509268 6.44747 -22.0128 -6.25632
lowerback 0.12527 -0.801739 -7.15209
upperback -6.5168 -1.4697 -1.27001
thorax -6.76596 -0.377036 2.75461
lowerneck -10.191 -10.5531 -17.7129
upperneck 22.8106 -15.6548 15.5735
head 11.8502 -7.29816 6.37928
rclavicle -2.70347e-014 -2.54444e-014
rhumerus -20.3137 5.08587 -95.765
rradius 121.581
rwrist 32.9237
rhand 44.5174 8.37667
rfingers 7.12502
rthumb 66.0169 2.98931
lclavicle -2.70347e-014 -2.54444e-014
lhumerus 2.1175 -16.1339 96.9167
lradius 124.474
lwrist -14.9692
lhand 34.2629 43.0967
lfingers 7.12502
lthumb 57.4932 59.2642
rfemur -16.3912 13.7032 23.7194
rtibia 27.0024
rfoot -17.8315 3.36492
rtoes -15.4892
lfemur -13.9073 -2.53662 -13.651
ltibia 36.7265
lfoot -26.8188 18.7373
ltoes -12.4693
867
root 0.112898 16.9808 -0.51746 6.5745 -20.4898 -6.31346
lowerback 0.395487 -0.885589 -7.47608
upperback -6.4905 -1.59027 -0.858145
thorax -6.86847 -0.398983 3.37985
lowerneck -10.259 -10.5463 -17.8478
upperneck 22.4971 -15.6178 15.83
head 11.7755 -7.2611 6.49693
rclavicle 3.49861e-014 -3.18055e-015
rhumerus -20.5419 5.35943 -95.7457
rradius 121.406
rwrist 33.2581
rhand 44.0171 8.26092
rfingers 7.12502
rthumb 65.6295 2.16824
lclavicle 3.49861e-014 -3.18055e-015
lhumerus 2.83117 -16.0221 96.5209
lradius 124.14
lwrist -15.2762
lhand 33.7105 42.9492
lfingers 7.12502
lthumb 57.0084 59.5283
rfemur -16.5594 12.9138 23.8707
rtibia 27.1915
rfoot -17.897 2.70736
rtoes -15.6285
lfemur -14.6603 -3.3719 -13.3654
ltibia 37.1273
lfoot -26.5544 18.2911
ltoes -12.8883
868
root 0.112247 16.9739 -0.525264 6.71826 -19.0068 -6.34821
lowerback 0.571737 -0.926567 -7.77869
upperback -6.46998 -1.64912 -0.503339
thorax -6.93007 -0.394938 3.92986
lowerneck -10.1512 -10.5516 -17.828
upperneck 22.1008 -15.6549 16.1065
head 11.6368 -7.25373 6.58683
rclavicle -5.38706e-014 -4.13472e-014
rhumerus -20.4789 5.37631 -95.6309
rradius 121.239
rwrist 33.1562
rhand 44.298 8.11333
rfingers 7.12502
rthumb 65.8476 2.41389
lclavicle -5.38706e-014 -4.13472e-014
lhumerus 3.45295 -15.9382 96.1187
lradius 123.707
lwrist -15.2622
lhand 33.6988 42.8142
lfingers 7.12502
lthumb 56.9981 59.4018
rfemur -16.7408 12.1465 23.9801
rtibia 27.3207
rfoot -17.9237 2.09403
rtoes -15.9783
lfemur -15.4433 -4.19325 -13.0991
ltibia 37.5149
lfoot -26.2345 17.9841
ltoes -13.9993
869
root 0.115938 16.9696 -0.529295 6.85197 -17.4851 -6.40325
lowerback 0.622088 -0.83372 -7.74603
upperback -6.45137 -1.51455 -0.345634
thorax -6.95253 -0.323092 4.0711
lowerneck -9.69912 -10.6429 -17.7454
upperneck 21.6069 -15.9126 16.515
head 11.4473 -7.35148 6.68645
rclavicle -7.83212e-014 6.36111e-015
rhumerus -20.2914 4.84182 -95.4056
rradius 121.151
rwrist 32.9315
rhand 44.9747 8.01052
rfingers 7.12502
rthumb 66.3675 3.28862
lclavicle -7.83212e-014 6.36111e-015
lhumerus 3.5976 -16.3316 95.9493
lradius 123.296
lwrist -15.1169
lhand 33.7497 42.4648
lfingers 7.12502
lthumb 57.0428 59.0151
rfemur -16.8769 11.2481 24.1122
rtibia 27.4259
rfoot -17.9944 1.52714
rtoes -16.0956
lfemur -16.1894 -4.96042 -12.815
ltibia 37.8513
lfoot -26.0092 17.4598
ltoes -14.1433
870
root 0.122749 16.9685 -0.530809 6.97099 -15.836 -6.4852
lowerback 0.66103 -0.732532 -7.5146
upperback -6.4516 -1.36186 -0.22398
thorax -6.99299 -0.253939 4.06168
lowerneck -9.16138 -10.7602 -17.7845
upperneck 21.1697 -16.239 17.0451
head 11.3044 -7.48758 6.84672
rclavicle -9.14409e-015 2.06736e-014
rhumerus -20.0479 4.22984 -95.0885
rradius 121.04
rwrist 33.0041
rhand 45.017 8.02898
rfingers 7.12502
rthumb 66.3998 3.36964
lclavicle -9.14409e-015 2.06736e-014
lhumerus 3.17494 -17.0415 96.0382
lradius 122.965
lwrist -14.8592
lhand 33.544 42.5988
lfingers 7.12502
lthumb 56.8618 59.2993
rfemur -16.9496 10.2271 24.2822
rtibia 27.477
rfoot -18.1321 0.994202
rtoes -15.683
lfemur -16.9079 -5.71748 -12.4891
ltibia 38.0892
lfoot -25.6371 16.8724
ltoes -14.401
871
root 0.131107 16.9703 -0.531188 7.07395 -14.376 -6.37326
lowerback 0.735973 -0.584279 -7.33186
upperback -6.5457 -1.16539 -0.246776
thorax -7.16405 -0.158446 3.92507
lowerneck -8.48102 -10.8493 -17.7746
upperneck 20.7015 -16.581 17.6911
head 11.1363 -7.63053 7.04743
rclavicle -2.42517e-014 -2.38542e-014
rhumerus -19.8485 3.62154 -94.9905
rradius 120.942
rwrist 33.204
rhand 44.7738 8.25443
rfingers 7.12502
rthumb 66.214 3.23773
lclavicle -2.42517e-014 -2.38542e-014
lhumerus 2.3028 -17.9261 96.1256
lradius 122.582
lwrist -14.454
lhand 33.0043 42.8669
lfingers 7.12502
lthumb 56.3857 59.9534
rfemur -17.0583 9.36061 24.2117
rtibia 27.4702
rfoot -18.2008 0.49561
rtoes -15.6282
lfemur -17.5706 -6.48774 -12.4034
ltibia 38.226
lfoot -25.2378 16.5377
ltoes -15.3624
872
root 0.14335 16.9743 -0.521421 7.13151 -13.0388 -6.19827
lowerback 0.699763 -0.521531 -7.17405
upperback -6.61736 -1.06946 -0.201834
thorax -7.23164 -0.113742 3.87782
lowerneck -8.19921 -10.852 -17.5767
upperneck 20.552 -16.7204 18.0037
head 11.0697 -7.66931 7.11941
rclavicle -1.92821e-014 1.90833e-014
rhumerus -19.6661 3.45978 -94.9911
rradius 121.028
rwrist 33.312
rhand 44.6438 8.23955
rfingers 7.12502
rthumb 66.1142 3.03416
lclavicle -1.92821e-014 1.90833e-014
lhumerus 1.32185 -18.549 96.1754
lradius 122.037
lwrist -14.2325
lhand 32.5089 43.0951
lfingers 7.12502
lthumb 55.9473 60.5256
rfemur -17.0427 8.49292 24.0489
rtibia 27.4084
rfoot -18.2958 0.143076
rtoes -16.0665
lfemur -18.0476 -7.2623 -12.4578
ltibia 38.2675
lfoot -24.7484 16.4898
ltoes -16.9253
873
root 0.156982 16.9794 -0.506754 7.24037 -11.606 -6.12802
lowerback 0.441846 -0.622559 -7.22692
upperback -6.56559 -1.1554 0.212017
thorax -7.00813 -0.147332 4.34567
lowerneck -8.71699 -10.8629 -17.3911
upperneck 20.9265 -16.6793 17.7731
head 11.2597 -7.61428 6.99757
rclavicle -2.38542e-014 3.18055e-015
rhumerus -19.2787 3.93075 -94.7868
rradius 121.249
rwrist 33.2966
rhand 44.4444 7.63363
rfingers 7.12502
rthumb 65.9607 2.14196
lclavicle -2.38542e-014 3.18055e-015
lhumerus 0.369659 -18.6354 96.6011
lradius 121.484
lwrist -14.5039
lhand 32.5423 43.2946
lfingers 7.12502
lthumb 55.9769 60.7022
rfemur -16.978 7.60836 24.0001
rtibia 27.2719
rfoot -18.3768 -0.297829
rtoes -16.5478
lfemur -18.5059 -7.99892 -12.3852
ltibia 38.223
lfoot -24.2915 16.1278
ltoes -17.3184
